<!-- SF Symbols "speaker.wave.1.fill", exported to fit a shared 24x24 canvas. -->
<svg xmlns="http://www.w3.org/2000/svg" width="24" height="24" viewBox="0 0 24 24">
  <path d="M14.185 20.5377C14.8239 20.5377 15.2788 20.0828 15.2788 19.4536V4.6045C15.2788 3.9753 14.8239 3.46227 14.1656 3.46227C13.7107 3.46227 13.4009 3.65586 12.9169 4.13018L8.78358 8.00217C8.7255 8.06025 8.63838 8.08929 8.54158 8.08929H5.77311C4.45664 8.08929 3.75 8.81529 3.75 10.2092V13.8101C3.75 15.2137 4.45664 15.9301 5.77311 15.9301H8.54158C8.63838 15.9301 8.7255 15.9591 8.78358 16.0172L12.9169 19.9279C13.3525 20.3538 13.73 20.5377 14.185 20.5377ZM17.5547 17.0314C17.9414 17.301 18.4922 17.2189 18.8086 16.7619C19.7109 15.5783 20.25 13.8322 20.25 12.0392C20.25 10.2463 19.7109 8.51189 18.8086 7.31658C18.4922 6.85955 17.9414 6.7658 17.5547 7.04705C17.0742 7.37518 17.0039 7.96111 17.3672 8.44158C18.0469 9.37908 18.4336 10.6799 18.4336 12.0392C18.4336 13.3986 18.0352 14.6877 17.3672 15.6369C17.0156 16.1291 17.0742 16.6916 17.5547 17.0314Z"/>
</svg>
